<svg xmlns="http://www.w3.org/2000/svg" viewBox="0 0 210 82">
  <path d="M30 28c36-28 88-29 129-5 16 9 27 20 37 31-33-25-66-36-99-32-28 3-51 17-67 34H12c3-10 9-20 18-28Z" fill="#fff"/>
  <path d="M43 28c30-19 71-20 104-5 13 6 24 15 34 25-31-17-60-23-88-18-18 3-35 12-48 24H25c4-10 10-19 18-26Z" fill="#e21b2d"/>
  <text x="34" y="58" fill="#fff" font-family="Arial, sans-serif" font-size="30" font-weight="900">NOREN</text>
  <text x="69" y="73" fill="#ffc107" font-family="Arial, sans-serif" font-size="13" font-weight="900">AUTOMOTIVE</text>
</svg>
